# Blender v2.80 (sub 75) OBJ File: ''
# www.blender.org
mtllib crystal_3.mtl
o Cube.002_Cube.007
v -0.144587 -0.169277 0.171280
v -0.144587 0.271173 0.425574
v -0.504213 0.178095 0.078202
v -0.257377 5.540730 -0.576957
v -0.257377 5.994923 -1.363643
v -0.899703 5.374483 -1.197397
v -0.144587 -0.243548 -0.105905
v -0.504213 0.103824 -0.198983
v -0.144587 0.010746 -0.546355
v -0.257377 5.862267 -1.858722
v -0.257377 5.075581 -2.312915
v -0.899703 5.241827 -1.692475
v 0.142376 -0.169277 0.171280
v 0.502002 0.178095 0.078202
v 0.142376 0.271173 0.425574
v 0.255166 5.994923 -1.363643
v 0.255166 5.540730 -0.576957
v 0.897492 5.374483 -1.197397
v 0.142376 -0.243548 -0.105905
v 0.142376 0.010746 -0.546355
v 0.502002 0.103824 -0.198983
v 0.255166 5.862267 -1.858722
v 0.897492 5.241827 -1.692475
v 0.255166 5.075581 -2.312915
v -0.144587 -0.132865 0.097164
v -0.144587 0.082073 0.558101
v -0.504213 0.205073 0.220163
v -0.235968 3.860320 2.274255
v -0.235968 4.614819 1.922427
v -0.824632 4.061655 1.721092
v -0.144587 -0.034718 -0.172493
v -0.504213 0.303220 -0.049493
v -0.144587 0.426219 -0.387431
v -0.235968 4.775475 1.481030
v -0.235968 4.423645 0.726531
v -0.824632 4.222311 1.279695
v 0.142376 -0.132865 0.097164
v 0.502002 0.205073 0.220163
v 0.142376 0.082073 0.558101
v 0.233756 4.614819 1.922427
v 0.233757 3.860320 2.274255
v 0.822421 4.061655 1.721091
v 0.142376 -0.034718 -0.172493
v 0.142376 0.426219 -0.387431
v 0.502002 0.303220 -0.049493
v 0.233756 4.775475 1.481030
v 0.822421 4.222311 1.279695
v 0.233756 4.423645 0.726531
v -0.144587 0.091212 0.331065
v -0.144587 0.592073 0.242750
v -0.504213 0.297485 0.036477
v -0.279511 1.940439 -0.858088
v -0.279511 1.769075 -1.829939
v -0.977315 1.368832 -1.258332
v -0.144587 -0.143854 0.166470
v -0.504213 0.062419 -0.128118
v -0.144587 -0.232169 -0.334391
v -0.279511 1.312962 -2.149313
v -0.279511 0.341111 -1.977950
v -0.977315 0.912718 -1.577706
v 0.142376 0.091212 0.331065
v 0.502002 0.297485 0.036477
v 0.142376 0.592073 0.242750
v 0.277300 1.769075 -1.829939
v 0.277300 1.940439 -0.858088
v 0.975104 1.368832 -1.258332
v 0.142376 -0.143854 0.166470
v 0.142376 -0.232169 -0.334391
v 0.502002 0.062419 -0.128118
v 0.277300 1.312962 -2.149313
v 0.975104 0.912718 -1.577706
v 0.277300 0.341111 -1.977950
v -0.006356 -0.204278 0.149213
v -0.186169 0.107167 0.508839
v -0.497614 -0.072646 0.149213
v -1.632890 2.493324 0.718591
v -1.887669 2.934614 0.209033
v -2.074181 2.238546 0.209033
v -0.006356 -0.204278 -0.137749
v -0.497614 -0.072646 -0.137750
v -0.186169 0.107167 -0.497375
v -1.887670 2.934615 -0.197568
v -1.632891 2.493325 -0.707126
v -2.074181 2.238546 -0.197568
v 0.242161 -0.060797 0.149213
v 0.373794 0.430461 0.149213
v 0.062348 0.250648 0.508839
v -1.535543 3.137915 0.209033
v -1.280764 2.696625 0.718591
v -0.839474 2.951404 0.209033
v 0.242161 -0.060797 -0.137749
v 0.062348 0.250648 -0.497375
v 0.373794 0.430461 -0.137749
v -1.535543 3.137915 -0.197568
v -0.839474 2.951404 -0.197568
v -1.280764 2.696625 -0.707126
v -0.403831 -0.125681 0.149213
v -0.224018 0.185764 0.508839
v -0.535463 0.365577 0.149213
v 1.457069 3.244426 0.766448
v 1.728952 3.715342 0.222682
v 0.986153 3.516310 0.222682
v -0.403831 -0.125681 -0.137749
v -0.535463 0.365577 -0.137749
v -0.224018 0.185764 -0.497375
v 1.728952 3.715342 -0.211216
v 1.457068 3.244427 -0.754982
v 0.986153 3.516310 -0.211216
v -0.155314 -0.269162 0.149213
v 0.335944 -0.137530 0.149213
v 0.024499 0.042283 0.508839
v 2.104718 3.498394 0.222682
v 1.832834 3.027478 0.766448
v 2.303750 2.755595 0.222682
v -0.155314 -0.269162 -0.137749
v 0.024499 0.042283 -0.497375
v 0.335944 -0.137530 -0.137749
v 2.104718 3.498394 -0.211216
v 2.303751 2.755595 -0.211216
v 1.832835 3.027478 -0.754982
vt 0.389588 0.839351
vt 0.610412 0.839351
vt 0.610412 0.910649
vt 0.389588 0.910649
vt 0.389588 0.589351
vt 0.610412 0.589351
vt 0.610412 0.660649
vt 0.389588 0.660649
vt 0.214351 0.589351
vt 0.285649 0.589351
vt 0.285649 0.660649
vt 0.214351 0.660649
vt 0.714351 0.589351
vt 0.785649 0.589351
vt 0.785649 0.660649
vt 0.714351 0.660649
vt 0.389588 0.089351
vt 0.610412 0.089351
vt 0.610412 0.160649
vt 0.389588 0.160649
vt 0.389588 0.339351
vt 0.610412 0.339351
vt 0.610412 0.410649
vt 0.389588 0.410649
vt 0.393226 0.839351
vt 0.606774 0.839351
vt 0.606774 0.910649
vt 0.393226 0.910649
vt 0.393226 0.589351
vt 0.606774 0.589351
vt 0.606774 0.660649
vt 0.393226 0.660649
vt 0.214351 0.589351
vt 0.285649 0.589351
vt 0.285649 0.660649
vt 0.214351 0.660649
vt 0.714351 0.589351
vt 0.785649 0.589351
vt 0.785649 0.660649
vt 0.714351 0.660649
vt 0.393226 0.089351
vt 0.606774 0.089351
vt 0.606774 0.160649
vt 0.393226 0.160649
vt 0.393226 0.339351
vt 0.606774 0.339351
vt 0.606774 0.410649
vt 0.393226 0.410649
vt 0.410860 0.839351
vt 0.589140 0.839351
vt 0.589140 0.910649
vt 0.410860 0.910649
vt 0.410860 0.589351
vt 0.589140 0.589351
vt 0.589140 0.660649
vt 0.410860 0.660649
vt 0.214351 0.589351
vt 0.285649 0.589351
vt 0.285649 0.660649
vt 0.214351 0.660649
vt 0.714351 0.589351
vt 0.785649 0.589351
vt 0.785649 0.660649
vt 0.714351 0.660649
vt 0.410860 0.089351
vt 0.589140 0.089351
vt 0.589140 0.160649
vt 0.410860 0.160649
vt 0.410860 0.339351
vt 0.589140 0.339351
vt 0.589140 0.410649
vt 0.410860 0.410649
vt 0.400261 0.839351
vt 0.599739 0.839351
vt 0.599739 0.910649
vt 0.400261 0.910649
vt 0.400261 0.589351
vt 0.599739 0.589351
vt 0.599739 0.660649
vt 0.400261 0.660649
vt 0.214351 0.589351
vt 0.285649 0.589351
vt 0.285649 0.660649
vt 0.214351 0.660649
vt 0.714351 0.589351
vt 0.785649 0.589351
vt 0.785649 0.660649
vt 0.714351 0.660649
vt 0.400261 0.089351
vt 0.599739 0.089351
vt 0.599739 0.160649
vt 0.400261 0.160649
vt 0.400261 0.339351
vt 0.599739 0.339351
vt 0.599739 0.410649
vt 0.400261 0.410649
vt 0.396055 0.839351
vt 0.603945 0.839351
vt 0.603945 0.910649
vt 0.396055 0.910649
vt 0.396055 0.589351
vt 0.603945 0.589351
vt 0.603945 0.660649
vt 0.396055 0.660649
vt 0.714351 0.589351
vt 0.785649 0.589351
vt 0.785649 0.660649
vt 0.714351 0.660649
vt 0.396055 0.089351
vt 0.603945 0.089351
vt 0.603945 0.160649
vt 0.396055 0.160649
vt 0.396055 0.339351
vt 0.603945 0.339351
vt 0.603945 0.410649
vt 0.396055 0.410649
vt 0.214351 0.660649
vt 0.214351 0.750000
vt 0.125000 0.660649
vt 0.625000 0.910649
vt 0.610412 1.000000
vt 0.214351 0.589351
vt 0.125000 0.589351
vt 0.214351 0.500000
vt 0.785649 0.500000
vt 0.875000 0.589351
vt 0.285649 0.660649
vt 0.375000 0.660649
vt 0.285649 0.750000
vt 0.714351 0.750000
vt 0.625000 0.660649
vt 0.285649 0.589351
vt 0.285649 0.500000
vt 0.375000 0.589351
vt 0.625000 0.589351
vt 0.714351 0.500000
vt 0.214351 0.750000
vt 0.125000 0.660649
vt 0.625000 0.910649
vt 0.606774 1.000000
vt 0.125000 0.589351
vt 0.214351 0.500000
vt 0.785649 0.500000
vt 0.875000 0.589351
vt 0.375000 0.660649
vt 0.285649 0.750000
vt 0.714351 0.750000
vt 0.625000 0.660649
vt 0.285649 0.500000
vt 0.375000 0.589351
vt 0.625000 0.589351
vt 0.714351 0.500000
vt 0.214351 0.750000
vt 0.125000 0.660649
vt 0.625000 0.910649
vt 0.589140 1.000000
vt 0.125000 0.589351
vt 0.214351 0.500000
vt 0.785649 0.500000
vt 0.875000 0.589351
vt 0.375000 0.660649
vt 0.285649 0.750000
vt 0.714351 0.750000
vt 0.625000 0.660649
vt 0.285649 0.500000
vt 0.375000 0.589351
vt 0.625000 0.589351
vt 0.714351 0.500000
vt 0.214351 0.750000
vt 0.125000 0.660649
vt 0.625000 0.910649
vt 0.599739 1.000000
vt 0.125000 0.589351
vt 0.214351 0.500000
vt 0.785649 0.500000
vt 0.875000 0.589351
vt 0.375000 0.660649
vt 0.285649 0.750000
vt 0.714351 0.750000
vt 0.625000 0.660649
vt 0.285649 0.500000
vt 0.375000 0.589351
vt 0.625000 0.589351
vt 0.714351 0.500000
vt 0.214351 0.750000
vt 0.125000 0.660649
vt 0.625000 0.910649
vt 0.603945 1.000000
vt 0.125000 0.589351
vt 0.214351 0.500000
vt 0.785649 0.500000
vt 0.875000 0.589351
vt 0.375000 0.660649
vt 0.285649 0.750000
vt 0.714351 0.750000
vt 0.625000 0.660649
vt 0.285649 0.500000
vt 0.375000 0.589351
vt 0.625000 0.589351
vt 0.714351 0.500000
vt 0.389588 1.000000
vt 0.875000 0.660649
vt 0.785649 0.750000
vt 0.393226 1.000000
vt 0.875000 0.660649
vt 0.785649 0.750000
vt 0.410860 1.000000
vt 0.875000 0.660649
vt 0.785649 0.750000
vt 0.400261 1.000000
vt 0.875000 0.660649
vt 0.785649 0.750000
vt 0.396055 1.000000
vt 0.875000 0.660649
vt 0.785649 0.750000
vn 0.0000 0.1869 0.9824
vn 0.9973 -0.0712 0.0191
vn -0.0000 -0.9397 -0.3420
vn 0.0000 0.9659 -0.2588
vn -0.9973 -0.0712 0.0191
vn 0.0000 -0.3293 -0.9442
vn 0.0000 -0.4136 0.9105
vn 0.9970 -0.0726 -0.0264
vn -0.0000 -0.5736 0.8192
vn 0.0000 0.9397 0.3420
vn -0.9970 -0.0726 -0.0264
vn 0.0000 0.2684 -0.9633
vn 0.0000 0.6324 0.7746
vn 0.9624 -0.1559 0.2226
vn 0.5000 -0.8660 -0.0000
vn 0.0000 0.5736 -0.8192
vn -0.9624 -0.1559 0.2226
vn 0.0000 -0.9442 -0.3293
vn 0.0375 -0.0649 0.9972
vn 0.9011 0.4337 0.0000
vn -0.5000 -0.8660 0.0000
vn -0.5000 0.8660 0.0000
vn -0.8261 -0.5635 0.0000
vn 0.0375 -0.0649 -0.9972
vn -0.0368 -0.0638 0.9973
vn 0.8269 -0.5624 0.0000
vn 0.5000 0.8660 0.0000
vn -0.9005 0.4349 0.0000
vn -0.0368 -0.0638 -0.9973
vn -0.5774 -0.4082 0.7071
vn -0.5774 0.7071 0.4082
vn -0.5774 -0.7071 -0.4082
vn -0.5774 0.4082 -0.7071
vn 0.5774 -0.4082 0.7071
vn 0.5774 0.7071 0.4082
vn 0.5774 -0.7071 -0.4082
vn 0.5774 0.4082 -0.7071
vn -0.5774 -0.7400 0.3451
vn -0.5774 0.3451 0.7400
vn -0.5774 -0.3451 -0.7400
vn -0.5774 0.7400 -0.3451
vn 0.5774 -0.7400 0.3451
vn 0.5774 0.3451 0.7400
vn 0.5774 -0.3451 -0.7400
vn 0.5773 0.7400 -0.3451
vn -0.5774 0.1418 0.8041
vn -0.5774 0.8041 -0.1418
vn -0.5774 -0.8041 0.1418
vn -0.5774 -0.1418 -0.8041
vn 0.5774 0.1418 0.8041
vn 0.5774 0.8041 -0.1418
vn 0.5774 -0.8041 0.1418
vn 0.5774 -0.1418 -0.8041
vn -0.2113 -0.7887 0.5774
vn -0.7887 0.2113 0.5774
vn -0.2113 -0.7887 -0.5774
vn -0.7887 0.2113 -0.5774
vn 0.7887 -0.2113 0.5774
vn 0.2113 0.7887 0.5774
vn 0.7887 -0.2113 -0.5774
vn 0.2113 0.7887 -0.5773
vn -0.7887 -0.2113 0.5774
vn -0.2113 0.7887 0.5774
vn -0.7887 -0.2113 -0.5774
vn -0.2113 0.7887 -0.5774
vn 0.2113 -0.7887 0.5774
vn 0.7887 0.2113 0.5774
vn 0.2113 -0.7887 -0.5774
vn 0.7887 0.2113 -0.5774
vn -0.7071 -0.6830 0.1830
vn -0.7055 0.1179 0.6988
vn -0.7071 0.6830 -0.1830
vn -0.7055 -0.2474 -0.6641
vn 0.0000 -0.8660 -0.5000
vn 0.0000 0.5000 -0.8660
vn 0.7055 -0.2474 -0.6641
vn 0.7071 -0.6830 0.1830
vn 0.7071 0.6830 -0.1830
vn 0.7055 0.1179 0.6988
vn 0.0000 -0.5000 0.8660
vn 0.0000 0.8660 0.5000
vn -0.7071 -0.6645 -0.2418
vn -0.7054 -0.3072 0.6388
vn -0.7071 0.6645 0.2418
vn -0.7054 0.1753 -0.6868
vn 0.0000 -0.4226 -0.9063
vn 0.0000 0.9063 -0.4226
vn 0.7054 0.1753 -0.6868
vn 0.7071 -0.6645 -0.2418
vn 0.7071 0.6645 0.2418
vn 0.7054 -0.3072 0.6388
vn -0.0000 -0.9063 0.4226
vn 0.0000 0.4226 0.9063
vn -0.7071 -0.4056 0.5792
vn -0.6849 0.4185 0.5965
vn -0.7071 0.4056 -0.5792
vn -0.6849 -0.7036 -0.1892
vn -0.0000 -0.9848 0.1736
vn 0.0000 -0.1736 -0.9848
vn 0.6849 -0.7036 -0.1892
vn 0.7071 -0.4056 0.5792
vn 0.7071 0.4056 -0.5792
vn 0.6849 0.4185 0.5965
vn 0.0000 0.1736 0.9848
vn 0.0000 0.9848 -0.1736
vn -0.2588 -0.9659 -0.0000
vn -0.5769 -0.4118 0.7055
vn -0.9659 0.2588 0.0000
vn -0.5769 -0.4118 -0.7055
vn 0.3536 -0.6124 -0.7071
vn -0.3536 0.6124 -0.7071
vn 0.6450 0.2937 -0.7055
vn 0.9659 -0.2588 -0.0000
vn 0.2588 0.9659 0.0000
vn 0.6450 0.2937 0.7055
vn 0.3536 -0.6124 0.7071
vn -0.3536 0.6124 0.7071
vn -0.9659 -0.2588 0.0000
vn -0.6445 0.2948 0.7055
vn -0.2588 0.9659 0.0000
vn -0.6445 0.2948 -0.7055
vn -0.3536 -0.6124 -0.7071
vn 0.3536 0.6124 -0.7071
vn 0.5775 -0.4107 -0.7055
vn 0.2588 -0.9659 0.0000
vn 0.9659 0.2588 0.0000
vn 0.5775 -0.4107 0.7055
vn -0.3536 -0.6124 0.7071
vn 0.3536 0.6124 0.7071
vn 0.0000 -0.9659 0.2588
usemtl Material.004
s off
f 15/1/1 17/2/1 4/3/1 2/4/1
f 21/5/2 23/6/2 18/7/2 14/8/2
f 31/9/3 43/10/3 37/11/3 25/12/3
f 22/13/4 10/14/4 5/15/4 16/16/4
f 3/17/5 6/18/5 12/19/5 8/20/5
f 9/21/6 11/22/6 24/23/6 20/24/6
f 39/25/7 41/26/7 28/27/7 26/28/7
f 45/29/8 47/30/8 42/31/8 38/32/8
f 55/33/9 67/34/9 61/35/9 49/36/9
f 46/37/10 34/38/10 29/39/10 40/40/10
f 27/41/11 30/42/11 36/43/11 32/44/11
f 33/45/12 35/46/12 48/47/12 44/48/12
f 63/49/13 65/50/13 52/51/13 50/52/13
f 69/53/14 71/54/14 66/55/14 62/56/14
f 79/57/15 91/58/15 85/59/15 73/60/15
f 70/61/16 58/62/16 53/63/16 64/64/16
f 51/65/17 54/66/17 60/67/17 56/68/17
f 57/69/18 59/70/18 72/71/18 68/72/18
f 87/73/19 89/74/19 76/75/19 74/76/19
f 93/77/20 95/78/20 90/79/20 86/80/20
f 103/81/21 115/82/21 109/83/21 97/84/21
f 94/85/22 82/86/22 77/87/22 88/88/22
f 75/89/23 78/90/23 84/91/23 80/92/23
f 81/93/24 83/94/24 96/95/24 92/96/24
f 111/97/25 113/98/25 100/99/25 98/100/25
f 117/101/26 119/102/26 114/103/26 110/104/26
f 118/105/27 106/106/27 101/107/27 112/108/27
f 99/109/28 102/110/28 108/111/28 104/112/28
f 105/113/29 107/114/29 120/115/29 116/116/29
f 1/117/30 2/118/30 3/119/30
f 4/3/31 5/120/31 6/121/31
f 7/122/32 8/123/32 9/124/32
f 10/14/33 11/125/33 12/126/33
f 13/127/34 14/128/34 15/129/34
f 16/16/35 17/130/35 18/131/35
f 19/132/36 20/133/36 21/134/36
f 22/13/37 23/135/37 24/136/37
f 25/12/38 26/137/38 27/138/38
f 28/27/39 29/139/39 30/140/39
f 31/9/40 32/141/40 33/142/40
f 34/38/41 35/143/41 36/144/41
f 37/11/42 38/145/42 39/146/42
f 40/40/43 41/147/43 42/148/43
f 43/10/44 44/149/44 45/150/44
f 46/37/45 47/151/45 48/152/45
f 49/36/46 50/153/46 51/154/46
f 52/51/47 53/155/47 54/156/47
f 55/33/48 56/157/48 57/158/48
f 58/62/49 59/159/49 60/160/49
f 61/35/50 62/161/50 63/162/50
f 64/64/51 65/163/51 66/164/51
f 67/34/52 68/165/52 69/166/52
f 70/61/53 71/167/53 72/168/53
f 73/60/54 74/169/54 75/170/54
f 76/75/55 77/171/55 78/172/55
f 79/57/56 80/173/56 81/174/56
f 82/86/57 83/175/57 84/176/57
f 85/59/58 86/177/58 87/178/58
f 88/88/59 89/179/59 90/180/59
f 91/58/60 92/181/60 93/182/60
f 94/85/61 95/183/61 96/184/61
f 97/84/62 98/185/62 99/186/62
f 100/99/63 101/187/63 102/188/63
f 103/81/64 104/189/64 105/190/64
f 106/106/65 107/191/65 108/192/65
f 109/83/66 110/193/66 111/194/66
f 112/108/67 113/195/67 114/196/67
f 115/82/68 116/197/68 117/198/68
f 118/105/69 119/199/69 120/200/69
f 7/122/70 1/117/70 3/119/70 8/123/70
f 2/4/71 4/3/71 6/121/71 3/201/71
f 5/15/72 10/14/72 12/126/72 6/202/72
f 11/22/73 9/21/73 8/20/73 12/19/73
f 19/132/74 7/122/74 9/124/74 20/133/74
f 10/14/75 22/13/75 24/136/75 11/125/75
f 23/6/76 21/5/76 20/24/76 24/23/76
f 13/127/77 19/132/77 21/5/77 14/8/77
f 22/13/78 16/16/78 18/7/78 23/6/78
f 17/2/79 15/1/79 14/8/79 18/7/79
f 1/117/80 13/127/80 15/129/80 2/118/80
f 16/16/81 5/15/81 4/203/81 17/130/81
f 31/9/82 25/12/82 27/138/82 32/141/82
f 26/28/83 28/27/83 30/140/83 27/204/83
f 29/39/84 34/38/84 36/144/84 30/205/84
f 35/46/85 33/45/85 32/44/85 36/43/85
f 43/10/86 31/9/86 33/142/86 44/149/86
f 34/38/87 46/37/87 48/152/87 35/143/87
f 47/30/88 45/29/88 44/48/88 48/47/88
f 37/11/89 43/10/89 45/29/89 38/32/89
f 46/37/90 40/40/90 42/31/90 47/30/90
f 41/26/91 39/25/91 38/32/91 42/31/91
f 25/12/92 37/11/92 39/146/92 26/137/92
f 40/40/93 29/39/93 28/206/93 41/147/93
f 55/33/94 49/36/94 51/154/94 56/157/94
f 50/52/95 52/51/95 54/156/95 51/207/95
f 53/63/96 58/62/96 60/160/96 54/208/96
f 59/70/97 57/69/97 56/68/97 60/67/97
f 67/34/98 55/33/98 57/158/98 68/165/98
f 58/62/99 70/61/99 72/168/99 59/159/99
f 71/54/100 69/53/100 68/72/100 72/71/100
f 61/35/101 67/34/101 69/53/101 62/56/101
f 70/61/102 64/64/102 66/55/102 71/54/102
f 65/50/103 63/49/103 62/56/103 66/55/103
f 49/36/104 61/35/104 63/162/104 50/153/104
f 64/64/105 53/63/105 52/209/105 65/163/105
f 79/57/106 73/60/106 75/170/106 80/173/106
f 74/76/107 76/75/107 78/172/107 75/210/107
f 77/87/108 82/86/108 84/176/108 78/211/108
f 83/94/109 81/93/109 80/92/109 84/91/109
f 91/58/110 79/57/110 81/174/110 92/181/110
f 82/86/111 94/85/111 96/184/111 83/175/111
f 95/78/112 93/77/112 92/96/112 96/95/112
f 85/59/113 91/58/113 93/77/113 86/80/113
f 94/85/114 88/88/114 90/79/114 95/78/114
f 89/74/115 87/73/115 86/80/115 90/79/115
f 73/60/116 85/59/116 87/178/116 74/169/116
f 88/88/117 77/87/117 76/212/117 89/179/117
f 103/81/118 97/84/118 99/186/118 104/189/118
f 98/100/119 100/99/119 102/188/119 99/213/119
f 101/107/120 106/106/120 108/192/120 102/214/120
f 107/114/121 105/113/121 104/112/121 108/111/121
f 115/82/122 103/81/122 105/190/122 116/197/122
f 106/106/123 118/105/123 120/200/123 107/191/123
f 119/102/124 117/101/124 116/116/124 120/115/124
f 109/83/125 115/82/125 117/101/125 110/104/125
f 118/105/126 112/108/126 114/103/126 119/102/126
f 113/98/127 111/97/127 110/104/127 114/103/127
f 97/84/128 109/83/128 111/194/128 98/185/128
f 112/108/129 101/107/129 100/215/129 113/195/129
f 7/122/130 19/132/130 13/127/130 1/117/130
